<svg width="18" height="14" viewBox="0 0 18 14" fill="none" xmlns="http://www.w3.org/2000/svg">
<path d="M1.598 12.7932C0.558241 11.6733 0 10.4173 0 8.38137C0 5.02574 2.1759 1.99609 5.41538 0.321058C5.79603 0.124234 6.25737 0.26634 6.48813 0.627427V0.627427C6.75895 1.05118 6.61112 1.613 6.19131 1.88989C4.57057 2.95887 3.72129 4.15935 3.25006 5.24722C2.92531 5.99693 3.83522 6.76933 4.64865 6.84595V6.84595C6.46974 7.01689 7.90522 8.53287 7.90522 10.4173C7.90522 11.3675 7.53298 12.2788 6.87038 12.9507C6.20778 13.6225 5.3091 14 4.37205 14C3.28888 14 2.25315 13.4984 1.598 12.7932ZM11.6928 12.7932C10.653 11.6733 10.0948 10.4173 10.0948 8.38137C10.0948 5.02574 12.2707 1.99609 15.5102 0.321058C15.8908 0.124234 16.3521 0.26634 16.5829 0.627427V0.627427C16.8537 1.05118 16.7059 1.613 16.2861 1.88989C14.6653 2.95887 13.8161 4.15935 13.3448 5.24722C13.0201 5.99693 13.93 6.76933 14.7434 6.84595V6.84595C16.5645 7.01689 18 8.53287 18 10.4173C18 11.3675 17.6278 12.2788 16.9652 12.9507C16.3026 13.6225 15.4039 14 14.4668 14C13.3837 14 12.3479 13.4984 11.6928 12.7932Z" fill="#686868"/>
</svg>
