<svg width="20" height="20" viewBox="0 0 20 20" fill="none" xmlns="http://www.w3.org/2000/svg">
<path d="M6 8C6 8.55228 6.44772 9 7 9H10.5C11.163 9 11.7989 8.73661 12.2678 8.26777C12.7366 7.79893 13 7.16304 13 6.5C13 5.83696 12.7366 5.20107 12.2678 4.73223C11.7989 4.26339 11.163 4 10.5 4H7C6.44772 4 6 4.44772 6 5V8ZM16 13.5C16 14.0909 15.8836 14.6761 15.6575 15.2221C15.4313 15.768 15.0998 16.2641 14.682 16.682C14.2641 17.0998 13.768 17.4313 13.2221 17.6575C12.6761 17.8836 12.0909 18 11.5 18H5C4.44772 18 4 17.5523 4 17V3C4 2.44772 4.44772 2 5 2H10.5C11.381 2.00004 12.2425 2.25865 12.9779 2.74378C13.7132 3.2289 14.29 3.9192 14.6367 4.72907C14.9834 5.53894 15.0847 6.43276 14.9282 7.29969C14.8474 7.74704 14.6998 8.17707 14.4923 8.57613C14.1937 9.15037 14.3038 9.92069 14.7514 10.3883C15.0002 10.6482 15.218 10.9382 15.3992 11.2526C15.7931 11.9361 16.0003 12.7112 16 13.5ZM7 11C6.44772 11 6 11.4477 6 12V15C6 15.5523 6.44772 16 7 16H11.5C12.163 16 12.7989 15.7366 13.2678 15.2678C13.7366 14.7989 14 14.163 14 13.5C14 12.837 13.7366 12.2011 13.2678 11.7322C12.7989 11.2634 12.163 11 11.5 11H7Z" fill="#686868"/>
</svg>
