<svg width="20" height="20" viewBox="0 0 20 20" fill="none" xmlns="http://www.w3.org/2000/svg">
<path d="M2.8 3H17.2C17.4122 3 17.6157 3.08194 17.7657 3.22781C17.9157 3.37367 18 3.5715 18 3.77778V16.2222C18 16.4285 17.9157 16.6263 17.7657 16.7722C17.6157 16.9181 17.4122 17 17.2 17H2.8C2.58783 17 2.38434 16.9181 2.23431 16.7722C2.08429 16.6263 2 16.4285 2 16.2222V3.77778C2 3.5715 2.08429 3.37367 2.23431 3.22781C2.38434 3.08194 2.58783 3 2.8 3ZM13.0214 12.2153C13.3275 12.5131 13.815 12.5132 14.1212 12.2155L15.6625 10.717C16.0664 10.3243 16.0664 9.67568 15.6625 9.28301L14.1215 7.78481C13.8152 7.48697 13.3274 7.48714 13.0213 7.78519V7.78519C12.7029 8.09515 12.7032 8.60676 13.0219 8.91634L13.3993 9.28285C13.8035 9.67553 13.8036 10.3246 13.3994 10.7173L13.0217 11.0844C12.7031 11.394 12.703 11.9055 13.0214 12.2153V12.2153ZM6.60074 10.7172C6.19646 10.3245 6.19638 9.67545 6.60057 9.28267L6.97827 8.91564C7.29688 8.60603 7.29703 8.09449 6.9786 7.78469V7.78469C6.67251 7.48689 6.185 7.4868 5.87881 7.78449L4.33748 9.28301C3.93358 9.67568 3.93358 10.3243 4.33748 10.717L5.87849 12.2152C6.18483 12.513 6.6726 12.5129 6.97874 12.2148V12.2148C7.2971 11.9048 7.2968 11.3932 6.97807 11.0837L6.60074 10.7172ZM8.84246 13.8889C9.1749 13.8889 9.47244 13.6826 9.58901 13.3712L11.9041 7.18778C12.0992 6.6667 11.7139 6.11111 11.1575 6.11111V6.11111C10.8251 6.11111 10.5276 6.31742 10.411 6.62876L8.09591 12.8122C7.90081 13.3333 8.28605 13.8889 8.84246 13.8889V13.8889Z" fill="#686868"/>
</svg>
