<svg width="20" height="20" viewBox="0 0 20 20" fill="none" xmlns="http://www.w3.org/2000/svg">
<path d="M10 19C5.0293 19 1 14.9707 1 10C1 5.0293 5.0293 1 10 1C14.9707 1 19 5.0293 19 10C19 14.9707 14.9707 19 10 19ZM10 17.2C11.9096 17.2 13.7409 16.4414 15.0912 15.0912C16.4414 13.7409 17.2 11.9096 17.2 10C17.2 8.09044 16.4414 6.25909 15.0912 4.90883C13.7409 3.55857 11.9096 2.8 10 2.8C8.09044 2.8 6.25909 3.55857 4.90883 4.90883C3.55857 6.25909 2.8 8.09044 2.8 10C2.8 11.9096 3.55857 13.7409 4.90883 15.0912C6.25909 16.4414 8.09044 17.2 10 17.2ZM6.538 11.8872C6.38653 11.3561 6.84772 10.9 7.4 10.9H12.6C13.1523 10.9 13.6135 11.3561 13.462 11.8872C13.2955 12.471 12.9825 13.0087 12.5456 13.4456C11.8705 14.1207 10.9548 14.5 10 14.5C9.04522 14.5 8.12955 14.1207 7.45442 13.4456C7.0175 13.0087 6.70449 12.471 6.538 11.8872ZM6.4 9.1C6.04196 9.1 5.69858 8.95777 5.44541 8.70459C5.19223 8.45142 5.05 8.10804 5.05 7.75C5.05 7.39196 5.19223 7.04858 5.44541 6.79541C5.69858 6.54223 6.04196 6.4 6.4 6.4C6.75804 6.4 7.10142 6.54223 7.35459 6.79541C7.60777 7.04858 7.75 7.39196 7.75 7.75C7.75 8.10804 7.60777 8.45142 7.35459 8.70459C7.10142 8.95777 6.75804 9.1 6.4 9.1ZM13.6 9.1C13.242 9.1 12.8986 8.95777 12.6454 8.70459C12.3922 8.45142 12.25 8.10804 12.25 7.75C12.25 7.39196 12.3922 7.04858 12.6454 6.79541C12.8986 6.54223 13.242 6.4 13.6 6.4C13.958 6.4 14.3014 6.54223 14.5546 6.79541C14.8078 7.04858 14.95 7.39196 14.95 7.75C14.95 8.10804 14.8078 8.45142 14.5546 8.70459C14.3014 8.95777 13.958 9.1 13.6 9.1Z" fill="#686868"/>
</svg>
