<svg width="20" height="20" viewBox="0 0 20 20" fill="none" xmlns="http://www.w3.org/2000/svg">
<path d="M12.8421 16.1053C12.8421 16.5994 12.4415 17 11.9474 17V17C11.4532 17 11.0526 16.5994 11.0526 16.1053V11.875C11.0526 11.3227 10.6049 10.875 10.0526 10.875H5.78947C5.23719 10.875 4.78947 11.3227 4.78947 11.875V16.1053C4.78947 16.5994 4.38889 17 3.89474 17V17C3.40059 17 3 16.5994 3 16.1053V3.89474C3 3.40059 3.40059 3 3.89474 3V3C4.38889 3 4.78947 3.40059 4.78947 3.89474V8.125C4.78947 8.67728 5.23719 9.125 5.78947 9.125H10.0526C10.6049 9.125 11.0526 8.67728 11.0526 8.125V3.89474C11.0526 3.40059 11.4532 3 11.9474 3V3C12.4415 3 12.8421 3.40059 12.8421 3.89474V16.1053ZM17 6.5C17.5523 6.5 18 6.94772 18 7.5V16.1053C18 16.5994 17.5994 17 17.1053 17V17C16.6111 17 16.2105 16.5994 16.2105 16.1053V9.35346C16.2105 8.88575 15.7682 8.54442 15.3158 8.663V8.663C14.8634 8.78158 14.4211 8.44025 14.4211 7.97254V7.76228C14.4211 7.36399 14.6897 7.01584 15.075 6.91486L16.5332 6.53267C16.616 6.51098 16.7012 6.5 16.7868 6.5H17Z" fill="#686868"/>
</svg>
