<svg width="20" height="20" viewBox="0 0 20 20" fill="none" xmlns="http://www.w3.org/2000/svg">
<path d="M1.88889 3C2.37981 3 2.77778 3.39797 2.77778 3.88889V8.125C2.77778 8.67728 3.22549 9.125 3.77778 9.125H8C8.55229 9.125 9 8.67728 9 8.125V3.88889C9 3.39797 9.39797 3 9.88889 3V3C10.3798 3 10.7778 3.39797 10.7778 3.88889V16.1111C10.7778 16.602 10.3798 17 9.88889 17V17C9.39797 17 9 16.602 9 16.1111V11.875C9 11.3227 8.55228 10.875 8 10.875H3.77778C3.22549 10.875 2.77778 11.3227 2.77778 11.875V16.1111C2.77778 16.602 2.37981 17 1.88889 17V17C1.39797 17 1 16.602 1 16.1111V3.88889C1 3.39797 1.39797 3 1.88889 3V3ZM15.6667 6.5C17.5076 6.5 19 7.96912 19 9.78125C19 10.5311 18.744 11.2232 18.3138 11.7762L18.1822 11.9338L15.2524 15.25H17.9028C18.386 15.25 18.7778 15.6418 18.7778 16.125V16.125C18.7778 16.6082 18.386 17 17.9028 17H13.5434C12.9978 17 12.5556 16.5577 12.5556 16.0122V16.0122C12.5556 15.7714 12.6435 15.5389 12.8029 15.3584L16.84 10.7857C17.0782 10.5171 17.2222 10.1654 17.2222 9.78125C17.2222 8.936 16.5253 8.25 15.6667 8.25C14.8507 8.25 14.1813 8.86863 14.1164 9.65525V9.65525C14.1135 9.72568 14.0555 9.78125 13.985 9.78125H13.241C12.7397 9.78125 12.3205 9.36686 12.4592 8.88511C12.8553 7.50855 14.1414 6.5 15.6667 6.5Z" fill="#686868"/>
</svg>
