<svg width="20" height="20" viewBox="0 0 20 20" fill="none" xmlns="http://www.w3.org/2000/svg">
<path d="M9.77227 7.74652C9.46272 7.74652 9.16012 7.83831 8.90274 8.01029C8.64536 8.18227 8.44475 8.42671 8.32629 8.71269C8.20783 8.99868 8.17684 9.31338 8.23723 9.61698C8.29762 9.92058 8.44668 10.1995 8.66557 10.4183C8.88445 10.6372 9.16333 10.7863 9.46693 10.8467C9.77054 10.9071 10.0852 10.8761 10.3712 10.7576C10.6572 10.6392 10.9016 10.4386 11.0736 10.1812C11.2456 9.92379 11.3374 9.62119 11.3374 9.31164C11.3374 8.89654 11.1725 8.49845 10.879 8.20493C10.5855 7.91142 10.1874 7.74652 9.77227 7.74652ZM9.77227 10.1319C9.5595 10.1249 9.35779 10.0355 9.20976 9.8825C9.06173 9.72951 8.97897 9.52497 8.97897 9.31208C8.97897 9.0992 9.06173 8.89466 9.20976 8.74167C9.35779 8.58868 9.5595 8.49924 9.77227 8.49224V8.49224C9.88221 8.48862 9.99174 8.50715 10.0944 8.54672C10.197 8.58629 10.2906 8.6461 10.3697 8.72259C10.4487 8.79908 10.5116 8.89068 10.5545 8.99195C10.5974 9.09322 10.6195 9.20209 10.6195 9.31208C10.6195 9.42208 10.5974 9.53095 10.5545 9.63222C10.5116 9.73349 10.4487 9.82509 10.3697 9.90158C10.2906 9.97806 10.197 10.0379 10.0944 10.0774C9.99174 10.117 9.88221 10.1355 9.77227 10.1319V10.1319Z" fill="#686868" stroke="#686868" stroke-width="0.25"/>
<path d="M16.0149 4.16794L5.84033 3.01385C5.64515 2.98616 5.44632 3.00009 5.2569 3.05471C5.06748 3.10933 4.89176 3.20342 4.74129 3.33078C4.59071 3.4478 4.46524 3.59395 4.37235 3.7605C4.27947 3.92705 4.22107 4.11061 4.20065 4.30021L4.01422 5.82805H3.43629C3.04168 5.84423 2.66944 6.01562 2.40059 6.30492C2.13174 6.59423 1.98804 6.97801 2.00078 7.37275V14.9986C1.99194 15.3738 2.13199 15.7373 2.39033 16.0096C2.64866 16.2819 3.00428 16.4409 3.37947 16.4518H13.6668C14.0651 16.4607 14.4511 16.3137 14.7427 16.0423C15.0344 15.7709 15.2086 15.3965 15.2284 14.9986V14.6968C15.4833 14.6478 15.7252 14.5463 15.9386 14.3985C16.2407 14.1442 16.4341 13.784 16.4792 13.3917L17.3368 5.82538C17.3786 5.43082 17.2633 5.03567 17.0159 4.72547C16.7685 4.41528 16.4089 4.21498 16.0149 4.16794V4.16794ZM14.4871 14.9986C14.4681 15.1998 14.3723 15.386 14.2195 15.5183C14.0667 15.6506 13.8687 15.7188 13.6668 15.7088H3.43629C3.25841 15.7141 3.08574 15.6485 2.95622 15.5264C2.8267 15.4044 2.75095 15.2359 2.74561 15.0581C2.74561 15.0391 2.74561 15.0202 2.74561 15.0013V13.6155L5.63437 11.4911C5.80232 11.3625 6.01039 11.2976 6.22165 11.3078C6.43292 11.318 6.63373 11.4028 6.78846 11.547L8.81965 13.3358C9.1282 13.595 9.51668 13.7398 9.91958 13.746C10.2346 13.7499 10.5445 13.666 10.8144 13.5036L14.4853 11.3792V14.9986H14.4871ZM14.4871 10.5074L10.4247 12.868C10.2549 12.9694 10.0577 13.0154 9.86056 12.9995C9.6634 12.9836 9.47611 12.9066 9.32479 12.7792L7.27495 10.9699C6.98972 10.7248 6.62963 10.5839 6.25378 10.5703C5.87792 10.5568 5.50862 10.6714 5.20648 10.8954L2.7465 12.6842V7.37275C2.7335 7.17566 2.79856 6.98138 2.92763 6.83188C3.0567 6.68237 3.23942 6.58966 3.43629 6.57376H13.6668C13.878 6.58247 14.0785 6.66883 14.2298 6.81629C14.3812 6.96374 14.4728 7.1619 14.4871 7.37275V10.5074ZM16.5938 5.7295V5.73661L15.7175 13.303C15.7183 13.3998 15.6968 13.4955 15.6548 13.5828C15.6128 13.67 15.5513 13.7465 15.4752 13.8063C15.4006 13.8809 15.2328 13.9182 15.2328 13.9555V7.37275C15.2186 6.9639 15.0486 6.57596 14.7576 6.28842C14.4666 6.00089 14.0767 5.83554 13.6677 5.82627H4.75905L4.93038 4.37301C4.96678 4.18471 5.06524 4.01405 5.21003 3.88829C5.37354 3.77526 5.57123 3.72255 5.76931 3.73915L15.9253 4.91277C16.1216 4.9323 16.3022 5.02885 16.4275 5.18127C16.5528 5.33369 16.6126 5.52955 16.5938 5.72595V5.7295Z" fill="#686868" stroke="#686868" stroke-width="0.25"/>
</svg>
