<svg width="20" height="20" viewBox="0 0 20 20" fill="none" xmlns="http://www.w3.org/2000/svg">
<path d="M14.0995 7.48092C13.7579 7.13922 13.7579 6.58532 14.0996 6.24367V6.24367C14.4413 5.90199 14.9952 5.90199 15.3369 6.24367L18.3424 9.24914C18.7329 9.63967 18.7329 10.2728 18.3424 10.6634L15.3369 13.6688C14.9952 14.0105 14.4413 14.0105 14.0996 13.6688V13.6688C13.7579 13.3272 13.7579 12.7733 14.0995 12.4316L15.8673 10.6633C16.2577 10.2728 16.2577 9.63974 15.8673 9.24924L14.0995 7.48092ZM5.94992 6.24367C6.29157 6.58532 6.29161 7.13922 5.95001 7.48092L4.18218 9.24924C3.79179 9.63974 3.79179 10.2728 4.18218 10.6633L5.65321 12.1347C6.11621 12.5978 6.0165 13.3736 5.45143 13.7046L5.2033 13.8499C4.77446 14.1011 4.22623 13.9992 3.91624 13.6108L1.55757 10.655C1.24005 10.2571 1.27213 9.68412 1.63211 9.32414L4.71258 6.24367C5.05426 5.90199 5.60824 5.90199 5.94992 6.24367V6.24367Z" fill="#686868"/>
<path d="M16.75 4.75H2.75C2.26675 4.75 1.875 4.35825 1.875 3.875C1.875 3.39175 2.26675 3 2.75 3H16.75C17.2332 3 17.625 3.39175 17.625 3.875C17.625 4.35825 17.2332 4.75 16.75 4.75Z" fill="#686868"/>
<path d="M16.75 17H2.75C2.26675 17 1.875 16.6082 1.875 16.125C1.875 15.6418 2.26675 15.25 2.75 15.25H16.75C17.2332 15.25 17.625 15.6418 17.625 16.125C17.625 16.6082 17.2332 17 16.75 17Z" fill="#686868"/>
</svg>
