<svg width="20" height="20" viewBox="0 0 20 20" fill="none" xmlns="http://www.w3.org/2000/svg">
<path d="M13 17C13 17.5523 12.5523 18 12 18H6C5.44772 18 5 17.5523 5 17V17C5 16.4477 5.44772 16 6 16H7.08791C7.5732 16 7.98844 15.6516 8.07271 15.1737L9.83605 5.17366C9.94401 4.56136 9.47299 4 8.85124 4H8C7.44772 4 7 3.55228 7 3V3C7 2.44772 7.44772 2 8 2H14C14.5523 2 15 2.44772 15 3V3C15 3.55228 14.5523 4 14 4H12.9121C12.4268 4 12.0116 4.34843 11.9273 4.82635L10.164 14.8263C10.056 15.4386 10.527 16 11.1488 16H12C12.5523 16 13 16.4477 13 17V17Z" fill="#686868"/>
</svg>
