<svg width="20" height="20" viewBox="0 0 20 20" fill="none" xmlns="http://www.w3.org/2000/svg">
<path d="M15.036 12.0146C14.7574 12.2929 14.306 12.2925 14.0278 12.0139V12.0139C13.7498 11.7355 13.75 11.2845 14.0282 11.0063L14.5316 10.5028C14.8646 10.1727 15.1291 9.77999 15.3099 9.34731C15.4908 8.91464 15.5844 8.45049 15.5855 7.98153C15.5865 7.51257 15.4949 7.04802 15.3159 6.61455C15.137 6.18109 14.8742 5.78725 14.5426 5.45564C14.211 5.12403 13.8173 4.86118 13.3839 4.68219C12.9505 4.5032 12.486 4.41159 12.0171 4.41262C11.5482 4.41364 11.0841 4.50729 10.6515 4.68818C10.2189 4.86906 9.82628 5.13363 9.49618 5.46669L8.99252 5.97078C8.71458 6.24896 8.26375 6.24912 7.98561 5.97113V5.97113C7.70733 5.693 7.70741 5.24188 7.98579 4.96385L8.48996 4.46032C9.42484 3.52529 10.6928 3 12.0149 3C13.3371 3 14.605 3.52529 15.5399 4.46032C16.4748 5.39534 17 6.6635 17 7.98583C17 9.30815 16.4748 10.5763 15.5399 11.5113L15.036 12.0146ZM12.0135 14.029C12.2919 14.3071 12.292 14.7582 12.0137 15.0363L11.51 15.5397C10.5752 16.4747 9.30719 17 7.98507 17C6.66295 17 5.39497 16.4747 4.46009 15.5397C3.52521 14.6047 3 13.3365 3 12.0142C3 10.6918 3.52521 9.42368 4.46009 8.48866L4.96339 7.98564C5.24189 7.70729 5.69334 7.70753 5.97155 7.98617V7.98617C6.24948 8.26454 6.24932 8.71546 5.97119 8.99364L5.46774 9.49717C5.13473 9.82732 4.8702 10.22 4.68934 10.6527C4.50848 11.0854 4.41485 11.5495 4.41383 12.0185C4.4128 12.4874 4.5044 12.952 4.68336 13.3854C4.86232 13.8189 5.12513 14.2128 5.45669 14.5444C5.78824 14.876 6.18203 15.1388 6.61542 15.3178C7.04882 15.4968 7.5133 15.5884 7.98219 15.5874C8.45109 15.5864 8.91516 15.4927 9.34777 15.3118C9.78038 15.1309 10.173 14.8664 10.5031 14.5333L11.0069 14.0294C11.2848 13.7515 11.7354 13.7513 12.0135 14.029V14.029ZM11.5096 7.48199C11.7879 7.20367 12.2391 7.20367 12.5174 7.48199V7.48199C12.7956 7.76026 12.7956 8.21138 12.5174 8.48963L8.48934 12.5177C8.21121 12.7958 7.76029 12.7959 7.48208 12.5178V12.5178C7.20377 12.2397 7.20369 11.7886 7.4819 11.5103L11.5096 7.48199Z" fill="#686868"/>
</svg>
