<svg width="20" height="20" viewBox="0 0 20 20" fill="none" xmlns="http://www.w3.org/2000/svg">
<path d="M6.44444 3.77778C6.44444 3.28686 6.84241 2.88889 7.33333 2.88889H17.1111C17.602 2.88889 18 3.28686 18 3.77778V3.77778C18 4.2687 17.602 4.66667 17.1111 4.66667H7.33333C6.84241 4.66667 6.44444 4.2687 6.44444 3.77778V3.77778ZM2.88889 2C3.37981 2 3.77778 2.39797 3.77778 2.88889V4.22222C3.77778 4.46768 3.97676 4.66667 4.22222 4.66667V4.66667C4.46768 4.66667 4.66667 4.86565 4.66667 5.11111V5.11111C4.66667 5.35657 4.46768 5.55556 4.22222 5.55556H2.44445C2.19899 5.55556 2 5.35657 2 5.11111V5.11111C2 4.86565 2.19898 4.66667 2.44444 4.66667V4.66667C2.6899 4.66667 2.88889 4.46768 2.88889 4.22222V3.33333C2.88889 3.08787 2.6899 2.88889 2.44444 2.88889V2.88889C2.19898 2.88889 2 2.6899 2 2.44444V2.44444C2 2.19898 2.19898 2 2.44444 2H2.88889ZM3 11.7778C2.44772 11.7778 2 11.3301 2 10.7778V10.4444C2 9.95353 2.39797 9.55556 2.88889 9.55556H3.55556C3.67829 9.55556 3.77778 9.45606 3.77778 9.33333V9.33333C3.77778 9.2106 3.67829 9.11111 3.55556 9.11111H2.44444C2.19898 9.11111 2 8.91213 2 8.66667V8.66667C2 8.42121 2.19898 8.22222 2.44444 8.22222H3.66667C4.21895 8.22222 4.66667 8.66994 4.66667 9.22222V9.55556C4.66667 10.0465 4.2687 10.4444 3.77778 10.4444H3.11111C2.98838 10.4444 2.88889 10.5439 2.88889 10.6667V10.6667C2.88889 10.7894 2.98838 10.8889 3.11111 10.8889H4.22222C4.46768 10.8889 4.66667 11.0879 4.66667 11.3333V11.3333C4.66667 11.5788 4.46768 11.7778 4.22222 11.7778H3ZM3.77778 16.8889C3.77778 16.7662 3.67829 16.6667 3.55556 16.6667H2.44444C2.19898 16.6667 2 16.4677 2 16.2222V16.2222C2 15.9768 2.19898 15.7778 2.44444 15.7778H3.55556C3.67829 15.7778 3.77778 15.6783 3.77778 15.5556V15.5556C3.77778 15.4328 3.67829 15.3333 3.55556 15.3333H2.44444C2.19898 15.3333 2 15.1343 2 14.8889V14.8889C2 14.6434 2.19898 14.4444 2.44444 14.4444H3.66667C4.21895 14.4444 4.66667 14.8922 4.66667 15.4444V17C4.66667 17.5523 4.21895 18 3.66667 18H2.44445C2.19899 18 2 17.801 2 17.5556V17.5556C2 17.3101 2.19898 17.1111 2.44444 17.1111H3.55556C3.67829 17.1111 3.77778 17.0116 3.77778 16.8889V16.8889ZM6.44444 10C6.44444 9.50908 6.84241 9.11111 7.33333 9.11111H17.1111C17.602 9.11111 18 9.50908 18 10V10C18 10.4909 17.602 10.8889 17.1111 10.8889H7.33333C6.84241 10.8889 6.44444 10.4909 6.44444 10V10ZM6.44444 16.2222C6.44444 15.7313 6.84241 15.3333 7.33333 15.3333H17.1111C17.602 15.3333 18 15.7313 18 16.2222V16.2222C18 16.7131 17.602 17.1111 17.1111 17.1111H7.33333C6.84241 17.1111 6.44444 16.7131 6.44444 16.2222V16.2222Z" fill="#686868"/>
</svg>
