<svg width="20" height="20" viewBox="0 0 20 20" fill="none" xmlns="http://www.w3.org/2000/svg">
<path d="M10.2226 14.5312H9.60842C9.40058 14.5314 9.20131 14.6159 9.05435 14.766C8.90738 14.9162 8.82475 15.1198 8.82458 15.3322V16.199C8.82475 16.4114 8.90738 16.615 9.05435 16.7652C9.20131 16.9154 9.40058 16.9998 9.60842 17H10.2226C10.4304 16.9998 10.6297 16.9154 10.7767 16.7652C10.9236 16.615 11.0063 16.4114 11.0064 16.199V15.3322C11.0064 15.227 10.9862 15.1229 10.9468 15.0257C10.9074 14.9285 10.8496 14.8402 10.7769 14.7659C10.7041 14.6915 10.6177 14.6325 10.5226 14.5922C10.4275 14.552 10.3255 14.5312 10.2226 14.5312V14.5312Z" stroke="#686868"/>
<path d="M6.33192 7.82164L7.33988 7.96589C7.50204 7.98269 7.66482 7.94069 7.79974 7.84724C7.93465 7.75378 8.03312 7.61483 8.0779 7.45468C8.19485 7.06514 8.40314 6.71069 8.68466 6.42214C9.05437 6.06569 9.54735 5.87365 10.0554 5.88815C10.3029 5.87551 10.5504 5.9143 10.7828 6.00217C11.0152 6.09003 11.2278 6.22516 11.4076 6.39936C11.5691 6.5584 11.6969 6.74964 11.783 6.9612C11.8692 7.17277 11.9119 7.40017 11.9085 7.6293C11.9111 7.96654 11.8128 8.29654 11.6268 8.57517C11.283 8.98794 10.907 9.37155 10.5025 9.72222C9.98833 10.16 9.56231 10.6957 9.24808 11.2995C9.04695 11.7871 8.94176 12.3104 8.93851 12.8395C8.92919 12.9414 8.93999 13.0442 8.97025 13.1417C9.00052 13.2393 9.04964 13.3297 9.11471 13.4075C9.17978 13.4853 9.25947 13.549 9.34906 13.5948C9.43865 13.6405 9.53632 13.6675 9.63628 13.674H10.2059C10.3907 13.6632 10.5648 13.5819 10.6936 13.446C10.8224 13.3102 10.8965 13.1298 10.9012 12.9407C10.9104 12.7095 10.9547 12.4811 11.0324 12.2637C11.2482 11.864 11.5355 11.5092 11.8794 11.2179C12.5385 10.6416 13.1167 9.97526 13.5976 9.23759C13.8614 8.76823 14.0001 8.23638 14 7.6951C14.0008 7.21106 13.9043 6.73202 13.7163 6.28773C13.5283 5.84345 13.2529 5.44341 12.9072 5.11248C12.5156 4.7345 12.0531 4.44152 11.5477 4.25122C11.0422 4.06093 10.5043 3.97726 9.96628 4.00528C9.02385 3.95981 8.09828 4.27228 7.36782 4.88251C6.63737 5.49273 6.1537 6.35756 6.00997 7.31043C5.99797 7.36562 5.99679 7.42268 6.00651 7.47834C6.01623 7.53399 6.03665 7.58712 6.06659 7.63466C6.09653 7.6822 6.13539 7.7232 6.18093 7.7553C6.22648 7.78739 6.27779 7.80994 6.33192 7.82164V7.82164Z" stroke="#686868"/>
<circle cx="10" cy="10" r="9.5" stroke="#686868"/>
</svg>
