<svg width="20" height="20" viewBox="0 0 20 20" fill="none" xmlns="http://www.w3.org/2000/svg">
<path d="M6.44444 4.32353C6.44444 3.83622 6.83949 3.44118 7.3268 3.44118H17.1176C17.605 3.44118 18 3.83622 18 4.32353V4.32353C18 4.81084 17.605 5.20588 17.1176 5.20588H7.3268C6.83949 5.20588 6.44444 4.81084 6.44444 4.32353V4.32353ZM2 4C2 3.44772 2.44772 3 3 3H3.66667C4.21895 3 4.66667 3.44772 4.66667 4V4.64706C4.66667 5.19934 4.21895 5.64706 3.66667 5.64706H3C2.44772 5.64706 2 5.19934 2 4.64706V4ZM2 10.1765C2 9.62419 2.44772 9.17647 3 9.17647H3.66667C4.21895 9.17647 4.66667 9.62419 4.66667 10.1765V10.8235C4.66667 11.3758 4.21895 11.8235 3.66667 11.8235H3C2.44772 11.8235 2 11.3758 2 10.8235V10.1765ZM2 16.3529C2 15.8007 2.44772 15.3529 3 15.3529H3.66667C4.21895 15.3529 4.66667 15.8007 4.66667 16.3529V17C4.66667 17.5523 4.21895 18 3.66667 18H3C2.44772 18 2 17.5523 2 17V16.3529ZM6.44444 10.5C6.44444 10.0127 6.83949 9.61765 7.3268 9.61765H17.1176C17.605 9.61765 18 10.0127 18 10.5V10.5C18 10.9873 17.605 11.3824 17.1176 11.3824H7.3268C6.83949 11.3824 6.44444 10.9873 6.44444 10.5V10.5ZM6.44444 16.6765C6.44444 16.1892 6.83949 15.7941 7.3268 15.7941H17.1176C17.605 15.7941 18 16.1892 18 16.6765V16.6765C18 17.1638 17.605 17.5588 17.1176 17.5588H7.3268C6.83949 17.5588 6.44444 17.1638 6.44444 16.6765V16.6765Z" fill="#686868"/>
</svg>
