<svg width="20" height="20" viewBox="0 0 20 20" fill="none" xmlns="http://www.w3.org/2000/svg">
<path d="M5.625 2C6.10825 2 6.5 2.39175 6.5 2.875V10.0526C6.5 11.0018 6.86875 11.9121 7.52513 12.5833C8.1815 13.2545 9.07174 13.6316 10 13.6316C10.9283 13.6316 11.8185 13.2545 12.4749 12.5833C13.1313 11.9121 13.5 11.0018 13.5 10.0526V2.875C13.5 2.39175 13.8918 2 14.375 2V2C14.8582 2 15.25 2.39175 15.25 2.875V10.0526C15.25 11.4764 14.6969 12.8419 13.7123 13.8487C12.7277 14.8555 11.3924 15.4211 10 15.4211C8.60761 15.4211 7.27226 14.8555 6.28769 13.8487C5.30312 12.8419 4.75 11.4764 4.75 10.0526V2.875C4.75 2.39175 5.14175 2 5.625 2V2ZM3 18.1053C3 17.6111 3.40059 17.2105 3.89474 17.2105H16.1053C16.5994 17.2105 17 17.6111 17 18.1053V18.1053C17 18.5994 16.5994 19 16.1053 19H3.89474C3.40059 19 3 18.5994 3 18.1053V18.1053Z" fill="#686868"/>
</svg>
