<svg width="20" height="20" viewBox="0 0 20 20" fill="none" xmlns="http://www.w3.org/2000/svg">
<path d="M3 12.3632V14.5449C2.99988 14.736 3.03743 14.9253 3.11051 15.1019C3.18359 15.2785 3.29077 15.4389 3.42592 15.5741C3.56106 15.7092 3.72152 15.8164 3.89812 15.8895C4.07472 15.9626 4.26399 16.0001 4.45511 16H14.6371C14.8281 16 15.0172 15.9624 15.1936 15.8893C15.37 15.8162 15.5303 15.7091 15.6654 15.5741C15.8004 15.439 15.9075 15.2787 15.9806 15.1023C16.0537 14.9259 16.0913 14.7368 16.0913 14.5458V12.3632" stroke="#686868" stroke-width="1.545" stroke-linecap="round" stroke-linejoin="round"/>
<path d="M12.4554 5.90928L9.54612 3L6.63684 5.90928" stroke="#686868" stroke-width="1.545" stroke-linecap="round" stroke-linejoin="round"/>
<path d="M9.54602 3V13.182" stroke="#686868" stroke-width="1.545" stroke-linecap="round" stroke-linejoin="round"/>
</svg>
