<svg width="20" height="20" viewBox="0 0 20 20" fill="none" xmlns="http://www.w3.org/2000/svg">
<path d="M12.2877 8.87077L9.1492 7.15377C9.06164 7.10432 8.96259 7.07883 8.86204 7.07986C8.76148 7.0809 8.66298 7.10842 8.57645 7.15966C8.48992 7.2109 8.41843 7.28404 8.36919 7.37172C8.31994 7.45939 8.29468 7.5585 8.29594 7.65905V11.0645C8.29472 11.1646 8.31983 11.2633 8.36874 11.3508C8.41766 11.4382 8.48867 11.5112 8.57467 11.5626C8.66068 11.6139 8.75866 11.6418 8.85882 11.6434C8.95897 11.645 9.05779 11.6202 9.14539 11.5716L12.2838 9.88419C12.3763 9.83575 12.4538 9.76293 12.5078 9.67361C12.5619 9.58429 12.5904 9.48188 12.5904 9.37748C12.5904 9.27309 12.5619 9.17068 12.5078 9.08136C12.4538 8.99204 12.3763 8.91921 12.2838 8.87077H12.2877ZM9.12918 10.6354V8.09092L11.4744 9.37415L9.12918 10.6354Z" fill="#686868" stroke="#686868" stroke-width="0.25"/>
<path d="M17.0983 6.06696V6.05837C17.0496 5.35468 16.835 4.67252 16.4719 4.06776C16.2923 3.82342 16.0631 3.61987 15.7992 3.47051C15.5353 3.32114 15.2427 3.22935 14.9408 3.20116L14.8703 3.19067H14.8455C12.9674 3.02288 10.1321 3 10.1035 3H10.0987C10.0701 3 7.23863 3.02288 5.33954 3.19067H5.31476L5.24802 3.20021C4.94424 3.22973 4.65049 3.32491 4.38712 3.47915C4.12374 3.63339 3.89702 3.84301 3.72265 4.0935C3.37417 4.69205 3.16316 5.3606 3.10487 6.05075V6.06791C3.10487 6.12511 3 7.49318 3 8.86602V10.1502C3 11.523 3.1001 12.8911 3.10487 12.9483V12.9569C3.15455 13.6525 3.36821 14.3265 3.72837 14.9237C3.91576 15.171 4.15378 15.3755 4.42654 15.5234C4.69929 15.6714 5.00048 15.7594 5.30999 15.7817C5.36814 15.7893 5.41772 15.7969 5.45109 15.8036L5.4835 15.8093C6.56747 15.9342 9.96429 16 10.1111 16H10.1206C10.1492 16 12.9807 15.9771 14.8626 15.8093H14.8874L14.9675 15.7988C15.2676 15.7732 15.5583 15.6819 15.8192 15.5313C16.08 15.3807 16.3045 15.1745 16.4767 14.9275C16.8259 14.3297 17.0379 13.6618 17.0973 12.9721V12.955C17.0973 12.8978 17.2022 11.5297 17.2022 10.1569V8.86506C17.2022 7.49223 17.1021 6.12416 17.0973 6.06696H17.0983ZM16.3709 10.1502C16.3709 11.421 16.2755 12.73 16.2708 12.8501C16.2296 13.3371 16.0908 13.8108 15.8627 14.243C15.7521 14.4037 15.606 14.5369 15.4357 14.6323C15.2655 14.7276 15.0756 14.7826 14.8808 14.793L14.7921 14.8054C12.9759 14.9637 10.2474 14.9885 10.1206 14.9894C9.97954 14.9894 6.63039 14.9246 5.57884 14.8073C5.52545 14.7969 5.46634 14.7883 5.40532 14.7807C5.19965 14.7731 4.99804 14.7212 4.81425 14.6286C4.63047 14.536 4.46885 14.4047 4.34042 14.2439L4.3328 14.2344C4.09986 13.8098 3.96316 13.3391 3.93238 12.8558C3.92571 12.7614 3.83133 11.4372 3.83133 10.1502V8.86506C3.83133 7.59519 3.92666 6.29099 3.93143 6.16515C3.97048 5.6778 4.10937 5.20368 4.33947 4.77229C4.45345 4.60824 4.60266 4.47174 4.77619 4.37277C4.94972 4.2738 5.14317 4.21486 5.3424 4.20028L5.41009 4.19075C7.25293 4.03153 10.0015 4.0077 10.0997 4.00675C10.1979 4.00579 12.9454 4.03153 14.7711 4.19075L14.8445 4.20123C15.0447 4.21461 15.2396 4.27143 15.4156 4.36775C15.5916 4.46406 15.7445 4.59755 15.8637 4.75895V4.75895C16.0977 5.19031 16.2343 5.66769 16.2641 6.15752C16.2708 6.24333 16.3651 7.5704 16.3651 8.8622L16.3709 10.1502Z" fill="#686868" stroke="#686868" stroke-width="0.25"/>
</svg>
